<?xml version="1.0" encoding="UTF-8" standalone="no"?>
<!DOCTYPE svg PUBLIC "-//W3C//DTD SVG 1.1//EN"
"http://www.w3.org/Graphics/SVG/1.1/DTD/svg11.dtd">


<!-- Page 1 -->
<svg x="0" y="0" width="1540" height="220" viewBox="0 0 1540 220" version="1.1" xmlns="http://www.w3.org/2000/svg" xmlns:xlink="http://www.w3.org/1999/xlink"
style="display: block;margin-left: auto;margin-right: auto;">
<defs>

<style type="text/css"><![CDATA[
text { white-space: pre; }
path, image { pointer-events: none; }

.s1_1{
font-size: 35.04px;
font-family: TimesNewRomanPS-ItalicMT-Ita_d;
fill: #000000;
}
.s2_1{
font-size: 23.36px;
font-family: TimesNewRomanPS-ItalicMT-Ita_d;
fill: #000000;
}

.g0_1{
fill: none;
stroke: #000000;
stroke-width: 1.0826769;
stroke-linecap: round;
stroke-linejoin: round;
}

]]></style>

</defs>
<path d="M0,0
L0,220
L1540,220
L1540,0 Z " 
fill="#FFFFFF" stroke="none" />
<path d="M18.8,29H38M18.8,29V48.2" class="g0_1" />
<text transform="matrix(0.99, 0, -0.16, 0.99, 43, 122)" class="s1_1">R</text>
<text transform="matrix(0.99, 0, -0.16, 0.99, 67, 122)" class="s2_1">p</text>
<path d="M18.8,88.8V48.2m0,125.1V132.7m0,-43.9l18.1,3.7L.8,99.8l36.1,7.3L.8,114.4l36.1,7.3L.8,129l18,3.7M38,29h62.6" class="g0_1" />
<text transform="matrix(0.99, 0, -0.16, 0.99, 144, 122)" class="s1_1">L</text>
<text transform="matrix(0.99, 0, -0.16, 0.99, 166, 122)" class="s2_1">r</text>
<path d="M113.7,96.2c13.4,0,24.1,-6.6,24.1,-14.7c0,-6.6,-7.4,-12.4,-18,-14.1m-6.1,43.4c13.4,0,24.1,-6.6,24.1,-14.6c0,-8.1,-10.7,-14.7,-24.1,-14.7m0,43.9c13.4,0,24.1,-6.6,24.1,-14.6c0,-8.1,-10.7,-14.6,-24.1,-14.6m0,43.8c13.4,0,24.1,-6.6,24.1,-14.6c0,-8.1,-10.7,-14.6,-24.1,-14.6m6.1,43.3c10.6,-1.6,18,-7.5,18,-14.1c0,-8.1,-10.7,-14.6,-24.1,-14.6m0,-43.9c-6.6,0,-12,3.3,-12,7.3c0,4.1,5.4,7.4,12,7.4m0,14.6c-6.6,0,-12,3.2,-12,7.3c0,4,5.4,7.3,12,7.3m0,0c-6.6,0,-12,3.2,-12,7.3c0,4,5.4,7.3,12,7.3m0,-43.8c-6.6,0,-12,3.2,-12,7.3c0,4,5.4,7.3,12,7.3m6.1,-43.4V48.2m0,125.1V154.1M119.8,29V48.2M100.6,29H201.5" class="g0_1" />
<text transform="matrix(0.99, 0, -0.16, 0.99, 245, 122)" class="s1_1">C</text>
<text transform="matrix(0.99, 0, -0.16, 0.99, 273, 122)" class="s2_1">r</text>
<path d="M220.7,103.5V48.2m0,125.1V118.1M202.6,103.5h36.2m-36.2,14.6h36.2M220.7,29V48.2M201.5,29h38.4m682.2,0h9.3m7.3,0h14.6m7.3,0h14.7m7.3,0h14.6m7.4,0h9.2M922.1,192.5h9.3m7.3,0h14.6m7.3,0h14.7m7.3,0h14.6m7.4,0h9.2" class="g0_1" />
<text transform="matrix(0.99, 0, -0.16, 0.99, 1298, 122)" class="s1_1">L</text>
<text transform="matrix(0.99, 0, -0.16, 0.99, 1319, 122)" class="s2_1">r</text>
<path d="M1267.2,96.2c13.3,0,24.1,-6.6,24.1,-14.7c0,-6.6,-7.5,-12.4,-18.1,-14.1m-6,43.4c13.3,0,24.1,-6.6,24.1,-14.6c0,-8.1,-10.8,-14.7,-24.1,-14.7m0,43.9c13.3,0,24.1,-6.6,24.1,-14.6c0,-8.1,-10.8,-14.6,-24.1,-14.6m0,43.8c13.3,0,24.1,-6.6,24.1,-14.6c0,-8.1,-10.8,-14.6,-24.1,-14.6m6,43.3c10.6,-1.6,18.1,-7.5,18.1,-14.1c0,-8.1,-10.8,-14.6,-24.1,-14.6m0,-43.9c-6.7,0,-12.1,3.3,-12.1,7.3c0,4.1,5.4,7.4,12.1,7.4m0,14.6c-6.7,0,-12.1,3.2,-12.1,7.3c0,4,5.4,7.3,12.1,7.3m0,0c-6.7,0,-12.1,3.2,-12.1,7.3c0,4,5.4,7.3,12.1,7.3m0,-43.8c-6.7,0,-12.1,3.2,-12.1,7.3c0,4,5.4,7.3,12.1,7.3m6,-43.4V48.2m0,125.1V154.1m0,-125.1V48.2M1254,29h100.9" class="g0_1" />
<text transform="matrix(0.99, 0, -0.16, 0.99, 1399, 122)" class="s1_1">C</text>
<text transform="matrix(0.99, 0, -0.16, 0.99, 1427, 122)" class="s2_1">r</text>
<path d="M1374.1,103.5V48.2m0,125.1V118.1M1356,103.5h36.2M1356,118.1h36.2M1374.1,29V48.2M1354.9,29h100.9m19.2,0h-19.2m19.2,0V48.2" class="g0_1" />
<text transform="matrix(0.99, 0, -0.16, 0.99, 1499, 122)" class="s1_1">R</text>
<text transform="matrix(0.99, 0, -0.16, 0.99, 1523, 122)" class="s2_1">p</text>
<path d="M1475,88.8V48.2m0,125.1V132.7m0,-43.9l18.1,3.7L1457,99.8l36.1,7.3l-36.1,7.3l36.1,7.3L1457,129l18,3.7M18.8,192.5H38m-19.2,0V173.3M38,192.5h62.6m19.2,0V173.3m-19.2,19.2H201.5m19.2,0V173.3m-19.2,19.2h38.4m1033.3,0V173.3M1254,192.5h100.9m19.2,0V173.3m-19.2,19.2h100.9m19.2,0h-19.2m19.2,0V173.3" class="g0_1" />
<text transform="matrix(0.99, 0, -0.16, 0.99, 359, 122)" class="s1_1">K</text>
<text transform="matrix(0.99, 0, -0.16, 0.99, 388, 122)" class="s2_1">1,2</text>
<path d="M321.6,211.7H460.9V9.8H321.6V211.7ZM460.9,29h19.2M460.9,192.5h19.2M302.4,29h19.2M302.4,192.5h19.2M302.4,29H239.9m62.5,163.5H239.9M480.1,29h62.5M480.1,192.5h62.5" class="g0_1" />
<text transform="matrix(0.99, 0, -0.16, 0.99, 586, 122)" class="s1_1">L</text>
<text transform="matrix(0.99, 0, -0.16, 0.99, 608, 122)" class="s2_1">r</text>
<path d="M555.8,96.2c13.3,0,24.1,-6.6,24.1,-14.7c0,-6.6,-7.4,-12.4,-18.1,-14.1m-6,43.4c13.3,0,24.1,-6.6,24.1,-14.6c0,-8.1,-10.8,-14.7,-24.1,-14.7m0,43.9c13.3,0,24.1,-6.6,24.1,-14.6c0,-8.1,-10.8,-14.6,-24.1,-14.6m0,43.8c13.3,0,24.1,-6.6,24.1,-14.6c0,-8.1,-10.8,-14.6,-24.1,-14.6m6,43.3c10.7,-1.6,18.1,-7.5,18.1,-14.1c0,-8.1,-10.8,-14.6,-24.1,-14.6m0,-43.9c-6.7,0,-12.1,3.3,-12.1,7.3c0,4.1,5.4,7.4,12.1,7.4m0,14.6c-6.7,0,-12.1,3.2,-12.1,7.3c0,4,5.4,7.3,12.1,7.3m0,0c-6.7,0,-12.1,3.2,-12.1,7.3c0,4,5.4,7.3,12.1,7.3m0,-43.8c-6.7,0,-12.1,3.2,-12.1,7.3c0,4,5.4,7.3,12.1,7.3m6,-43.4V48.2m0,125.1V154.1M561.8,29V48.2M542.6,29h101" class="g0_1" />
<text transform="matrix(0.99, 0, -0.16, 0.99, 687, 122)" class="s1_1">C</text>
<text transform="matrix(0.99, 0, -0.16, 0.99, 715, 122)" class="s2_1">r</text>
<path d="M662.7,103.5V48.2m0,125.1V118.1m-18,-14.6h36.1m-36.1,14.6h36.1M662.7,29V48.2M643.6,29h38.3M561.8,192.5V173.3m-19.2,19.2h101m19.1,0V173.3m-19.1,19.2h38.3" class="g0_1" />
<text transform="matrix(0.99, 0, -0.16, 0.99, 801, 122)" class="s1_1">K</text>
<text transform="matrix(0.99, 0, -0.16, 0.99, 830, 122)" class="s2_1">2,3</text>
<path d="M763.7,211.7H902.9V9.8H763.7V211.7ZM902.9,29h19.2M902.9,192.5h19.2M744.5,29h19.2M744.5,192.5h19.2M744.5,29H681.9m62.6,163.5H681.9M1254,29h-62.5M1254,192.5h-62.5" class="g0_1" />
<text transform="matrix(0.99, 0, -0.16, 0.99, 1070, 122)" class="s1_1">K</text>
<text transform="matrix(0.99, 0, -0.16, 0.99, 1099, 122)" class="s2_1">N-1,N</text>
<path d="M1033,211.7h139.3V9.8H1033V211.7ZM1172.3,29h19.2m-19.2,163.5h19.2M1013.8,29H1033m-19.2,163.5H1033" class="g0_1" />


<!-- Any embedded fonts defined here -->
<style type="text/css" ><![CDATA[

@font-face {
	font-family: TimesNewRomanPS-ItalicMT-Ita_d;
	src: url("fonts/TimesNewRomanPS-ItalicMT-Ita_d.woff") format("woff");
}

]]></style>

</svg>
