<?xml version="1.0" encoding="UTF-8" standalone="no"?>
<!DOCTYPE svg PUBLIC "-//W3C//DTD SVG 1.1//EN"
"http://www.w3.org/Graphics/SVG/1.1/DTD/svg11.dtd">


<!-- Page 1 -->
<svg x="0" y="0" width="660" height="220" viewBox="0 0 660 220" version="1.1" xmlns="http://www.w3.org/2000/svg" xmlns:xlink="http://www.w3.org/1999/xlink"
style="display: block;margin-left: auto;margin-right: auto;">
<defs>

<style type="text/css"><![CDATA[
text { white-space: pre; }
path, image { pointer-events: none; }

.s1_1{
font-size: 32.74px;
font-family: TimesNewRomanPS-ItalicMT-Ita_d;
fill: #000000;
}
.s2_1{
font-size: 21.83px;
font-family: TimesNewRomanPS-ItalicMT-Ita_d;
fill: #000000;
}

.g0_1{
fill: none;
stroke: #000000;
stroke-width: 1.0826769;
stroke-linecap: round;
stroke-linejoin: round;
}
.g1_1{
}

]]></style>

</defs>
<path d="M0,0
L0,220
L660,220
L660,0 Z " 
fill="#FFFFFF" stroke="none" />
<text transform="matrix(0.99, 0, -0.16, 0.99, 68, 136)" class="s1_1">K</text>
<text transform="matrix(0.99, 0, -0.16, 0.99, 95, 136)" class="s2_1">i,i+1</text>
<path d="M32.8,219.9H162.9V31.3H32.8V219.9ZM162.9,49.3h17.9M162.9,202h17.9M14.9,49.3H32.8M14.9,202H32.8" class="g0_1" />
<text transform="matrix(0.99, 0, -0.16, 0.99, 399, 136)" class="s1_1">-L</text>
<text transform="matrix(0.99, 0, -0.16, 0.99, 430, 136)" class="s2_1">k i,i+1</text>
<path d="M370.4,112c12.4,0,22.5,-6.1,22.5,-13.7C392.9,92.1,386,86.7,376,85.1m-5.6,40.5c12.4,0,22.5,-6.1,22.5,-13.6c0,-7.6,-10.1,-13.7,-22.5,-13.7m0,41c12.4,0,22.5,-6.2,22.5,-13.7c0,-7.5,-10.1,-13.6,-22.5,-13.6m0,40.9c12.4,0,22.5,-6.1,22.5,-13.6c0,-7.6,-10.1,-13.7,-22.5,-13.7m5.6,40.5c10,-1.5,16.9,-7,16.9,-13.2c0,-7.5,-10.1,-13.6,-22.5,-13.6m0,-41c-6.2,0,-11.3,3.1,-11.3,6.8c0,3.8,5.1,6.9,11.3,6.9m0,13.6c-6.2,0,-11.3,3.1,-11.3,6.8c0,3.8,5.1,6.9,11.3,6.9m0,0c-6.2,0,-11.3,3,-11.3,6.8c0,3.8,5.1,6.8,11.3,6.8m0,-40.9c-6.2,0,-11.3,3,-11.3,6.8c0,3.8,5.1,6.8,11.3,6.8M376,85.1V67.2M376,184V166.1" class="g0_1" />
<text transform="matrix(0.99, 0, -0.16, 0.99, 441, 22)" class="s1_1">L</text>
<text transform="matrix(0.99, 0, -0.16, 0.99, 462, 22)" class="s2_1">k i,i+1</text>
<path d="M438.7,54.9c0,-12.5,-6.1,-22.5,-13.6,-22.5c-6.2,0,-11.7,6.9,-13.2,16.9m40.5,5.6c0,-12.5,-6.1,-22.5,-13.7,-22.5c-7.5,0,-13.6,10,-13.6,22.5m40.9,0C466,42.4,459.9,32.4,452.4,32.4c-7.6,0,-13.7,10,-13.7,22.5m41,0C479.7,42.4,473.6,32.4,466,32.4c-7.5,0,-13.6,10,-13.6,22.5m40.5,-5.6c-1.6,-10,-7,-16.9,-13.2,-16.9c-7.6,0,-13.7,10,-13.7,22.5m-40.9,0c0,6.2,3,11.2,6.8,11.2c3.8,0,6.8,-5,6.8,-11.2m13.7,0c0,6.2,3,11.2,6.8,11.2c3.8,0,6.8,-5,6.8,-11.2m0,0c0,6.2,3.1,11.2,6.9,11.2c3.7,0,6.8,-5,6.8,-11.2m-41,0c0,6.2,3.1,11.2,6.9,11.2c3.7,0,6.8,-5,6.8,-11.2M411.9,49.3h-18M523.1,112c12.4,0,22.5,-6.1,22.5,-13.7c0,-6.2,-6.9,-11.6,-16.9,-13.2m-5.6,40.5c12.4,0,22.5,-6.1,22.5,-13.6c0,-7.6,-10.1,-13.7,-22.5,-13.7m0,41c12.4,0,22.5,-6.2,22.5,-13.7c0,-7.5,-10.1,-13.6,-22.5,-13.6m0,40.9c12.4,0,22.5,-6.1,22.5,-13.6c0,-7.6,-10.1,-13.7,-22.5,-13.7m5.6,40.5c10,-1.5,16.9,-7,16.9,-13.2c0,-7.5,-10.1,-13.6,-22.5,-13.6m-12.3,-90H492.9m30.2,49c-6.2,0,-11.3,3.1,-11.3,6.8c0,3.8,5.1,6.9,11.3,6.9m0,13.6c-6.2,0,-11.3,3.1,-11.3,6.8c0,3.8,5.1,6.9,11.3,6.9m0,0c-6.2,0,-11.3,3,-11.3,6.8c0,3.8,5.1,6.8,11.3,6.8m0,-40.9c-6.2,0,-11.3,3,-11.3,6.8c0,3.8,5.1,6.8,11.3,6.8m5.6,-40.5V67.2m0,116.8V166.1M393.9,202H510.8M376,49.3V67.2M358.1,49.3h35.8M376,202V184m-17.9,18h35.8M528.7,49.3V67.2M510.8,49.3h35.9M528.7,202V184m-17.9,18h35.9" class="g0_1" />
<text transform="matrix(0.99, 0, -0.16, 0.99, 552, 136)" class="s1_1">-L</text>
<text transform="matrix(0.99, 0, -0.16, 0.99, 583, 136)" class="s2_1">k i,i+1</text>
<path d="M212.7,130v-8.8h70V130Z" class="g1_1" />
<path d="M282.7,138.7V112.5l25.6,13.1Z" class="g1_1" />


<!-- Any embedded fonts defined here -->
<style type="text/css" ><![CDATA[

@font-face {
	font-family: TimesNewRomanPS-ItalicMT-Ita_d;
	src: url("fonts/TimesNewRomanPS-ItalicMT-Ita_d.woff") format("woff");
}

]]></style>

</svg>
