<?xml version="1.0" encoding="UTF-8" standalone="no"?>
<!DOCTYPE svg PUBLIC "-//W3C//DTD SVG 1.1//EN"
"http://www.w3.org/Graphics/SVG/1.1/DTD/svg11.dtd">


<!-- Page 1 -->
<svg x="0" y="0" width="1100" height="220" viewBox="0 0 1100 220" version="1.1" xmlns="http://www.w3.org/2000/svg" xmlns:xlink="http://www.w3.org/1999/xlink"
style="display: block;margin-left: auto;margin-right: auto;">
<defs>

<style type="text/css"><![CDATA[
text { white-space: pre; }
path, image { pointer-events: none; }

.s1_1{
font-size: 27.47px;
font-family: TimesNewRomanPS-ItalicMT-Ita_d;
fill: #000000;
}
.s2_1{
font-size: 18.31px;
font-family: TimesNewRomanPS-ItalicMT-Ita_d;
fill: #000000;
}

.g0_1{
fill: none;
stroke: #000000;
stroke-width: 1.0826769;
stroke-linecap: round;
stroke-linejoin: round;
}

]]></style>

</defs>
<path d="M0,0
L0,220
L1100,220
L1100,0 Z " 
fill="#FFFFFF" stroke="none" />
<path d="M18.3,55.7H37.1m-18.8,0V74.5m0,39.8V74.5m0,122.6V157.3m0,-43L36,117.9L.5,125.1L36,132.2L.5,139.4L36,146.6L.5,153.7l17.8,3.6m92.9,-35.8c13.1,0,23.7,-6.4,23.7,-14.3c0,-6.5,-7.3,-12.2,-17.7,-13.9m-6,42.5c13.1,0,23.7,-6.4,23.7,-14.3c0,-7.9,-10.6,-14.3,-23.7,-14.3m0,42.9c13.1,0,23.7,-6.4,23.7,-14.3c0,-7.9,-10.6,-14.3,-23.7,-14.3m0,42.9c13.1,0,23.7,-6.4,23.7,-14.3c0,-7.9,-10.6,-14.3,-23.7,-14.3m6,42.5c10.4,-1.6,17.7,-7.3,17.7,-13.9c0,-7.9,-10.6,-14.3,-23.7,-14.3M37.1,55.7H98.4m12.8,51.5c-6.5,0,-11.8,3.2,-11.8,7.1c0,4,5.3,7.2,11.8,7.2m0,14.3c-6.5,0,-11.8,3.2,-11.8,7.2c0,3.9,5.3,7.1,11.8,7.1m0,0c-6.5,0,-11.8,3.2,-11.8,7.2c0,3.9,5.3,7.1,11.8,7.1m0,-42.9c-6.5,0,-11.8,3.2,-11.8,7.2c0,3.9,5.3,7.1,11.8,7.1m6,-42.5V74.5m0,122.6V178.3m0,-122.6V74.5M98.4,55.7h98.8m18.8,73V74.5m0,122.6V143M198.3,128.7h35.5M198.3,143h35.5M216,55.7V74.5M281.8,61.6C281.8,48.6,275.4,38,267.5,38c-6.5,0,-12.2,7.3,-13.9,17.7m42.5,5.9C296.1,48.6,289.7,38,281.8,38c-7.9,0,-14.3,10.6,-14.3,23.6m42.9,0C310.4,48.6,304,38,296.1,38c-7.9,0,-14.3,10.6,-14.3,23.6m43,0C324.8,48.6,318.3,38,310.4,38c-7.9,0,-14.3,10.6,-14.3,23.6m42.5,-5.9C337,45.3,331.3,38,324.8,38c-8,0,-14.4,10.6,-14.4,23.6M197.2,55.7h37.6m32.7,5.9c0,6.6,3.2,11.8,7.2,11.8c3.9,0,7.1,-5.2,7.1,-11.8m14.3,0c0,6.6,3.2,11.8,7.2,11.8c3.9,0,7.1,-5.2,7.1,-11.8m0,0c0,6.6,3.2,11.8,7.2,11.8c4,0,7.2,-5.2,7.2,-11.8m-43,0c0,6.6,3.2,11.8,7.2,11.8c3.9,0,7.1,-5.2,7.1,-11.8M253.6,55.7H234.8m122.6,0H338.6m277.9,0h9m7.2,0H647m7.2,0h14.4m7.1,0h14.4m7.1,0h9.1M616.5,215.9h9m7.2,0H647m7.2,0h14.4m7.1,0h14.4M753.3,61.6C753.3,48.6,746.9,38,738.9,38c-6.5,0,-12.2,7.3,-13.8,17.7m42.5,5.9C767.6,48.6,761.2,38,753.3,38c-7.9,0,-14.4,10.6,-14.4,23.6m43,0C781.9,48.6,775.5,38,767.6,38c-7.9,0,-14.3,10.6,-14.3,23.6m42.9,0C796.2,48.6,789.8,38,781.9,38C774,38,767.6,48.6,767.6,61.6m42.5,-5.9C808.4,45.3,802.7,38,796.2,38c-7.9,0,-14.3,10.6,-14.3,23.6M697.2,215.9h9.1M738.9,61.6c0,6.6,3.3,11.8,7.2,11.8c4,0,7.2,-5.2,7.2,-11.8m14.3,0c0,6.6,3.2,11.8,7.1,11.8c4,0,7.2,-5.2,7.2,-11.8m0,0c0,6.6,3.2,11.8,7.2,11.8c3.9,0,7.1,-5.2,7.1,-11.8m-42.9,0c0,6.6,3.2,11.8,7.1,11.8c4,0,7.2,-5.2,7.2,-11.8M725.1,55.7H706.3m135.5,65.8c13,0,23.6,-6.4,23.6,-14.3c0,-6.5,-7.3,-12.2,-17.7,-13.9m-5.9,42.5c13,0,23.6,-6.4,23.6,-14.3c0,-7.9,-10.6,-14.3,-23.6,-14.3m0,42.9c13,0,23.6,-6.4,23.6,-14.3c0,-7.9,-10.6,-14.3,-23.6,-14.3m0,42.9c13,0,23.6,-6.4,23.6,-14.3c0,-7.9,-10.6,-14.3,-23.6,-14.3m5.9,42.5c10.4,-1.6,17.7,-7.3,17.7,-13.9c0,-7.9,-10.6,-14.3,-23.6,-14.3M828.9,55.7H810.1m31.7,51.5c-6.6,0,-11.9,3.2,-11.9,7.1c0,4,5.3,7.2,11.9,7.2m0,14.3c-6.6,0,-11.9,3.2,-11.9,7.2c0,3.9,5.3,7.1,11.9,7.1m0,0c-6.6,0,-11.9,3.2,-11.9,7.2c0,3.9,5.3,7.1,11.9,7.1m0,-42.9c-6.6,0,-11.9,3.2,-11.9,7.2c0,3.9,5.3,7.1,11.9,7.1m5.9,-42.5V74.5m0,122.6V178.3m0,-122.6V74.5M828.9,55.7h98.9m18.8,73V74.5m0,122.6V143M928.8,128.7h35.5M928.8,143h35.5M946.6,55.7V74.5M927.8,55.7h98.8m18.8,0h-18.8m18.8,0V74.5m0,39.8V74.5m0,122.6V157.3m0,-43l17.8,3.6l-35.5,7.2l35.5,7.1l-35.5,7.2l35.5,7.2l-35.5,7.1l17.7,3.6M18.3,215.9H37.1m-18.8,0V197.1m18.8,18.8H98.4m18.8,0V197.1M98.4,215.9h98.8m18.8,0V197.1m-18.8,18.8h37.6m612.9,0V197.1m-18.8,18.8h98.9m18.8,0V197.1m-18.8,18.8h98.8m18.8,0h-18.8m18.8,0V197.1M234.8,215.9H357.4m348.9,0H828.9" class="g0_1" />
<text transform="matrix(0.99, 0, -0.16, 0.99, 42, 142)" class="s1_1">R</text>
<text transform="matrix(0.99, 0, -0.16, 0.99, 61, 142)" class="s2_1">p</text>
<text transform="matrix(0.99, 0, -0.16, 0.99, 240, 142)" class="s1_1">C</text>
<text transform="matrix(0.99, 0, -0.16, 0.99, 262, 142)" class="s2_1">r</text>
<text transform="matrix(0.99, 0, -0.16, 0.99, 141, 142)" class="s1_1">L</text>
<text transform="matrix(0.99, 0, -0.16, 0.99, 158, 142)" class="s2_1">sh1</text>
<text transform="matrix(0.99, 0, -0.16, 0.99, 263, 23)" class="s1_1">L</text>
<text transform="matrix(0.99, 0, -0.16, 0.99, 280, 23)" class="s2_1">k 1,2</text>
<text transform="matrix(0.99, 0, -0.16, 0.99, 734, 23)" class="s1_1">L</text>
<text transform="matrix(0.99, 0, -0.16, 0.99, 751, 23)" class="s2_1">k N-1,N+1</text>
<text transform="matrix(0.99, 0, -0.16, 0.99, 872, 142)" class="s1_1">L</text>
<text transform="matrix(0.99, 0, -0.16, 0.99, 889, 142)" class="s2_1">shN</text>
<text transform="matrix(0.99, 0, -0.16, 0.99, 970, 142)" class="s1_1">C</text>
<text transform="matrix(0.99, 0, -0.16, 0.99, 992, 142)" class="s2_1">r</text>
<text transform="matrix(0.99, 0, -0.16, 0.99, 1069, 142)" class="s1_1">R</text>
<text transform="matrix(0.99, 0, -0.16, 0.99, 1088, 142)" class="s2_1">p</text>
<path d="M370.3,121.5c13.1,0,23.6,-6.4,23.6,-14.3c0,-6.5,-7.3,-12.2,-17.7,-13.9m-5.9,42.5c13.1,0,23.6,-6.4,23.6,-14.3c0,-7.9,-10.5,-14.3,-23.6,-14.3m0,42.9c13.1,0,23.6,-6.4,23.6,-14.3c0,-7.9,-10.5,-14.3,-23.6,-14.3m0,42.9c13.1,0,23.6,-6.4,23.6,-14.3c0,-7.9,-10.5,-14.3,-23.6,-14.3m5.9,42.5c10.4,-1.6,17.7,-7.3,17.7,-13.9c0,-7.9,-10.5,-14.3,-23.6,-14.3m0,-42.9c-6.5,0,-11.8,3.2,-11.8,7.1c0,4,5.3,7.2,11.8,7.2m0,14.3c-6.5,0,-11.8,3.2,-11.8,7.2c0,3.9,5.3,7.1,11.8,7.1m0,0c-6.5,0,-11.8,3.2,-11.8,7.2c0,3.9,5.3,7.1,11.8,7.1m0,-42.9c-6.5,0,-11.8,3.2,-11.8,7.2c0,3.9,5.3,7.1,11.8,7.1m5.9,-42.5V74.5m0,122.6V178.3m0,-122.6V74.5M357.4,55.7h98.9m18.8,73V74.5m0,122.6V143M457.4,128.7h35.4M457.4,143h35.4M475.1,55.7V74.5M540.9,61.6C540.9,48.6,534.5,38,526.6,38c-6.6,0,-12.3,7.3,-13.9,17.7m42.5,5.9C555.2,48.6,548.8,38,540.9,38C533,38,526.6,48.6,526.6,61.6m42.9,0C569.5,48.6,563.1,38,555.2,38c-7.9,0,-14.3,10.6,-14.3,23.6m42.9,0C583.8,48.6,577.4,38,569.5,38c-7.9,0,-14.3,10.6,-14.3,23.6m42.5,-5.9C596,45.3,590.3,38,583.8,38c-7.9,0,-14.3,10.6,-14.3,23.6M456.3,55.7h37.6m32.7,5.9c0,6.6,3.2,11.8,7.1,11.8c4,0,7.2,-5.2,7.2,-11.8m14.3,0c0,6.6,3.2,11.8,7.1,11.8c4,0,7.2,-5.2,7.2,-11.8m0,0c0,6.6,3.2,11.8,7.2,11.8c3.9,0,7.1,-5.2,7.1,-11.8m-42.9,0c0,6.6,3.2,11.8,7.1,11.8c4,0,7.2,-5.2,7.2,-11.8M512.7,55.7H493.9m122.6,0H597.7M376.2,215.9V197.1m-18.8,18.8h98.9m18.8,0V197.1m-18.8,18.8H616.5" class="g0_1" />
<text transform="matrix(0.99, 0, -0.16, 0.99, 499, 142)" class="s1_1">C</text>
<text transform="matrix(0.99, 0, -0.16, 0.99, 521, 142)" class="s2_1">r</text>
<text transform="matrix(0.99, 0, -0.16, 0.99, 400, 142)" class="s1_1">L</text>
<text transform="matrix(0.99, 0, -0.16, 0.99, 417, 142)" class="s2_1">sh2</text>
<text transform="matrix(0.99, 0, -0.16, 0.99, 522, 23)" class="s1_1">L</text>
<text transform="matrix(0.99, 0, -0.16, 0.99, 539, 23)" class="s2_1">k 2,3</text>


<!-- Any embedded fonts defined here -->
<style type="text/css" ><![CDATA[

@font-face {
	font-family: TimesNewRomanPS-ItalicMT-Ita_d;
	src: url("fonts/TimesNewRomanPS-ItalicMT-Ita_d.woff") format("woff");
}

]]></style>

</svg>
