<?xml version="1.0" encoding="UTF-8" standalone="no"?>
<!DOCTYPE svg PUBLIC "-//W3C//DTD SVG 1.1//EN"
"http://www.w3.org/Graphics/SVG/1.1/DTD/svg11.dtd">


<!-- Page 1 -->
<svg x="0" y="0" width="901" height="241" viewBox="0 0 901 241" version="1.1" xmlns="http://www.w3.org/2000/svg" xmlns:xlink="http://www.w3.org/1999/xlink"
style="display: block;margin-left: auto;margin-right: auto;">
<defs>

<style type="text/css"><![CDATA[
text { white-space: pre; }
path, image { pointer-events: none; }

.s1_1{
font-size: 42.33px;
font-family: TimesNewRomanPS-ItalicMT-Ita_d;
fill: #000000;
}
.s2_1{
font-size: 28.22px;
font-family: TimesNewRomanPS-ItalicMT-Ita_d;
fill: #000000;
}

.g0_1{
fill: none;
stroke: #000000;
stroke-width: 1.0826769;
stroke-linecap: round;
stroke-linejoin: round;
}
.g1_1{
}

]]></style>

</defs>
<path d="M0,0
L0,241
L901,241
L901,0 Z " 
fill="#FFFFFF" stroke="none" />
<path d="M22.3,22H45.5M22.3,22V45.1m0,49.1V45.1m0,151.2V147.2m0,-53l21.8,4.4L.4,107.5l43.7,8.8L.4,125.1l43.7,8.8L.4,142.8l21.9,4.4M136.9,103C153,103,166,95.1,166,85.4c0,-8.1,-8.9,-15.1,-21.8,-17.1m-7.3,52.4C153,120.7,166,112.8,166,103C166,93.3,153,85.4,136.9,85.4m0,52.9c16.1,0,29.1,-7.9,29.1,-17.6C166,110.9,153,103,136.9,103m0,53C153,156,166,148.1,166,138.3c0,-9.7,-13,-17.6,-29.1,-17.6m7.3,52.4C157.1,171.1,166,164,166,156c0,-9.8,-13,-17.7,-29.1,-17.7M45.5,22H121m15.9,63.4c-8,0,-14.5,3.9,-14.5,8.8c0,4.9,6.5,8.8,14.5,8.8m0,17.7c-8,0,-14.5,3.9,-14.5,8.8c0,4.9,6.5,8.8,14.5,8.8m0,0c-8,0,-14.5,4,-14.5,8.9c0,4.8,6.5,8.8,14.5,8.8m0,-53c-8,0,-14.5,4,-14.5,8.9c0,4.8,6.5,8.8,14.5,8.8m7.3,-52.4V45.1m0,151.2V173.1M144.2,22V45.1M121,22h46.4M22.3,219.4H45.5m-23.2,0V196.3m23.2,23.1H121m23.2,0V196.3M121,219.4h46.4" class="g0_1" />
<text transform="matrix(0.99, 0, -0.16, 0.99, 52, 135)" class="s1_1">R</text>
<text transform="matrix(0.99, 0, -0.16, 0.99, 80, 135)" class="s2_1">p</text>
<text transform="matrix(0.99, 0, -0.16, 0.99, 174, 135)" class="s1_1">L</text>
<text transform="matrix(0.99, 0, -0.16, 0.99, 200, 135)" class="s2_1">sh1</text>
<path d="M167.4,22h11.1m8.9,0h17.7m8.8,0h17.7m8.8,0h17.7m8.8,0h11.2M167.4,219.4h11.1m8.9,0h17.7m8.8,0h17.7m8.8,0h17.7m8.8,0h11.2" class="g0_1" />
<path d="M319.3,126.4V115h90.5v11.4Z" class="g1_1" />
<path d="M409.8,137.7v-34l33.1,17Z" class="g1_1" />
<path d="M523.2,22h23.2m-23.2,0V45.1m0,49.1V45.1m0,151.2V147.2m0,-53l21.9,4.4l-43.7,8.9l43.7,8.8l-43.7,8.8l43.7,8.8l-43.7,8.9l21.8,4.4M759.8,103c16,0,29.1,-7.9,29.1,-17.6c0,-8.1,-9,-15.1,-21.9,-17.1m-7.2,52.4c16,0,29.1,-7.9,29.1,-17.7c0,-9.7,-13.1,-17.6,-29.1,-17.6m0,52.9c16,0,29.1,-7.9,29.1,-17.6c0,-9.8,-13.1,-17.7,-29.1,-17.7m0,53c16,0,29.1,-7.9,29.1,-17.7c0,-9.7,-13.1,-17.6,-29.1,-17.6m7.2,52.4c12.9,-2,21.9,-9.1,21.9,-17.1c0,-9.8,-13.1,-17.7,-29.1,-17.7M668.3,22h75.6m15.9,63.4c-8.1,0,-14.6,3.9,-14.6,8.8c0,4.9,6.5,8.8,14.6,8.8m0,17.7c-8.1,0,-14.6,3.9,-14.6,8.8c0,4.9,6.5,8.8,14.6,8.8m0,0c-8.1,0,-14.6,4,-14.6,8.9c0,4.8,6.5,8.8,14.6,8.8m0,-53c-8.1,0,-14.6,4,-14.6,8.9c0,4.8,6.5,8.8,14.6,8.8M767,68.3V45.1m0,151.2V173.1M767,22V45.1M743.9,22h46.3m-267,197.4h23.2m-23.2,0V196.3m145.1,23.1h75.6m23.1,0V196.3m-23.1,23.1h46.3" class="g0_1" />
<text transform="matrix(0.99, 0, -0.16, 0.99, 553, 135)" class="s1_1">R</text>
<text transform="matrix(0.99, 0, -0.16, 0.99, 581, 135)" class="s2_1">p</text>
<text transform="matrix(0.99, 0, -0.16, 0.99, 797, 135)" class="s1_1">L</text>
<text transform="matrix(0.99, 0, -0.16, 0.99, 823, 135)" class="s2_1">shp</text>
<path d="M790.2,22h11.2m8.8,0h17.7m8.8,0h17.7m8.9,0h17.6m8.9,0h11.1M790.2,219.4h11.2m8.8,0h17.7m8.8,0h17.7m8.9,0h17.6m8.9,0h11.1M637.8,103C653.9,103,667,95.1,667,85.4c0,-8.1,-9,-15.1,-21.9,-17.1m-7.3,52.4c16.1,0,29.2,-7.9,29.2,-17.7C667,93.3,653.9,85.4,637.8,85.4m0,52.9c16.1,0,29.2,-7.9,29.2,-17.6C667,110.9,653.9,103,637.8,103m0,53c16.1,0,29.2,-7.9,29.2,-17.7c0,-9.7,-13.1,-17.6,-29.2,-17.6m7.3,52.4C658,171.1,667,164,667,156c0,-9.8,-13.1,-17.7,-29.2,-17.7M546.4,22h75.5m15.9,63.4c-8,0,-14.5,3.9,-14.5,8.8c0,4.9,6.5,8.8,14.5,8.8m0,17.7c-8,0,-14.5,3.9,-14.5,8.8c0,4.9,6.5,8.8,14.5,8.8m0,0c-8,0,-14.5,4,-14.5,8.9c0,4.8,6.5,8.8,14.5,8.8m0,-53c-8,0,-14.5,4,-14.5,8.9c0,4.8,6.5,8.8,14.5,8.8m7.3,-52.4V45.1m0,151.2V173.1M645.1,22V45.1M621.9,22h46.4M546.4,219.4h75.5m23.2,0V196.3m-23.2,23.1h46.4" class="g0_1" />
<text transform="matrix(0.99, 0, -0.16, 0.99, 675, 135)" class="s1_1">L</text>
<text transform="matrix(0.99, 0, -0.16, 0.99, 701, 135)" class="s2_1">p</text>


<!-- Any embedded fonts defined here -->
<style type="text/css" ><![CDATA[

@font-face {
	font-family: TimesNewRomanPS-ItalicMT-Ita_d;
	src: url("fonts/TimesNewRomanPS-ItalicMT-Ita_d.woff") format("woff");
}

]]></style>

</svg>
